<?xml version="1.0" encoding="UTF-8" standalone="no"?>
<!-- Created with Inkscape (http://www.inkscape.org/) -->

<svg
   width="540mm"
   height="1080mm"
   viewBox="0 0 540 1080"
   version="1.1"
   id="svg1"
   inkscape:version="1.4.2 (f4327f4, 2025-05-13)"
   sodipodi:docname="asteroidselectionwidget.svg"
   xmlns:inkscape="http://www.inkscape.org/namespaces/inkscape"
   xmlns:sodipodi="http://sodipodi.sourceforge.net/DTD/sodipodi-0.dtd"
   xmlns="http://www.w3.org/2000/svg"
   xmlns:svg="http://www.w3.org/2000/svg">
  <sodipodi:namedview
     id="namedview1"
     pagecolor="#ffffff"
     bordercolor="#111111"
     borderopacity="1"
     inkscape:showpageshadow="0"
     inkscape:pageopacity="0"
     inkscape:pagecheckerboard="1"
     inkscape:deskcolor="#d1d1d1"
     inkscape:document-units="mm"
     inkscape:zoom="0.13401722"
     inkscape:cx="1093.1431"
     inkscape:cy="1645.3109"
     inkscape:window-width="1920"
     inkscape:window-height="1111"
     inkscape:window-x="-9"
     inkscape:window-y="-9"
     inkscape:window-maximized="1"
     inkscape:current-layer="layer1" />
  <defs
     id="defs1" />
  <g
     inkscape:label="Layer 1"
     inkscape:groupmode="layer"
     id="layer1">
    <rect
       style="fill:#d35f5f;fill-opacity:1;stroke-width:3.49999;stroke-linecap:square"
       id="rect2"
       width="543.04584"
       height="174.50058"
       x="-2.7920096"
       y="-2.7920096" />
    <g
       id="text1"
       style="font-size:50.8px;font-family:Drexs;-inkscape-font-specification:Drexs;letter-spacing:2.032px;fill:#ffffff;stroke-width:3.49999;stroke-linecap:square"
       aria-label="CHOOSE AN &#10;EXISTING ASTEROID">
      <path
         style="stroke-width:3.5"
         d="m 50.658069,39.704221 v -4.318 c 0,-5.0292 -4.064,-9.144 -9.144,-9.144 h -8.6868 c -2.4384,0 -4.7244,0.9652 -6.4516,2.6924 -1.7272,1.6764 -2.6416,4.0132 -2.6416,6.4516 v 21.1328 c 0,2.4384 0.9144,4.7244 2.6416,6.4516 1.7272,1.7272 4.0132,2.6416 6.4516,2.6416 h 8.6868 c 5.08,0 9.144,-4.064 9.144,-9.0932 v -4.3688 c 0,-0.5588 -0.4572,-1.016 -1.016,-1.016 -0.6096,0 -1.0668,0.4572 -1.0668,1.016 v 4.3688 c 0,3.9116 -3.1496,7.0612 -7.0612,7.0612 h -8.6868 c -1.8796,0 -3.6576,-0.762 -4.9784,-2.0828 -1.3208,-1.3208 -2.0828,-3.0988 -2.0828,-4.9784 v -21.1328 c 0,-1.8796 0.762,-3.6576 2.0828,-4.9784 1.3208,-1.3208 3.0988,-2.0828 4.9784,-2.0828 h 8.6868 c 3.9116,0 7.0612,3.1496 7.0612,7.0612 v 4.318 c 0,0.6096 0.4572,1.0668 1.0668,1.0668 0.5588,0 1.016,-0.4572 1.016,-1.0668 z m 8.635968,-13.462 c -0.5588,0 -1.016,0.4572 -1.016,1.0668 v 37.2872 c 0,0.5588 0.4572,1.016 1.016,1.016 0.5588,0 1.016,-0.4572 1.016,-1.016 v -37.2872 c 0,-0.6096 -0.4572,-1.0668 -1.016,-1.0668 z m 24.892,0 c -0.6096,0 -1.0668,0.4572 -1.0668,1.0668 v 17.5768 h -21.336 c -0.5588,0 -1.0668,0.508 -1.0668,1.0668 0,0.5588 0.508,1.016 1.0668,1.016 h 21.336 v 17.6276 c 0,0.5588 0.4572,1.016 1.0668,1.016 0.5588,0 1.016,-0.4572 1.016,-1.016 v -18.6436 -18.6436 c 0,-0.6096 -0.4572,-1.0668 -1.016,-1.0668 z m 35.559973,9.144 c 0,-2.4384 -0.9652,-4.7752 -2.6924,-6.4516 -1.6764,-1.7272 -4.0132,-2.6924 -6.4516,-2.6924 h -8.6868 c -2.438405,0 -4.724405,0.9652 -6.451604,2.6924 -1.7272,1.6764 -2.6416,4.0132 -2.6416,6.4516 v 21.1328 c 0,2.4384 0.9144,4.7244 2.6416,6.4516 1.727199,1.7272 4.013199,2.6416 6.451604,2.6416 h 8.6868 c 2.4384,0 4.7752,-0.9144 6.4516,-2.6416 1.7272,-1.7272 2.6924,-4.0132 2.6924,-6.4516 z m -2.0828,0 v 21.1328 c 0,1.8796 -0.7112,3.6576 -2.032,4.9784 -1.3208,1.3208 -3.1496,2.0828 -5.0292,2.0828 h -8.6868 c -1.8796,0 -3.657605,-0.762 -4.978405,-2.0828 -1.320799,-1.3208 -2.082799,-3.0988 -2.082799,-4.9784 v -21.1328 c 0,-1.8796 0.762,-3.6576 2.082799,-4.9784 1.3208,-1.3208 3.098805,-2.0828 4.978405,-2.0828 h 8.6868 c 1.8796,0 3.7084,0.762 5.0292,2.0828 1.3208,1.3208 2.032,3.0988 2.032,4.9784 z m 36.62676,0 c 0,-2.4384 -0.9652,-4.7752 -2.6924,-6.4516 -1.6764,-1.7272 -4.0132,-2.6924 -6.4516,-2.6924 h -8.6868 c -2.4384,0 -4.7244,0.9652 -6.4516,2.6924 -1.7272,1.6764 -2.6416,4.0132 -2.6416,6.4516 v 21.1328 c 0,2.4384 0.9144,4.7244 2.6416,6.4516 1.7272,1.7272 4.0132,2.6416 6.4516,2.6416 h 8.6868 c 2.4384,0 4.7752,-0.9144 6.4516,-2.6416 1.7272,-1.7272 2.6924,-4.0132 2.6924,-6.4516 z m -2.0828,0 v 21.1328 c 0,1.8796 -0.7112,3.6576 -2.032,4.9784 -1.3208,1.3208 -3.1496,2.0828 -5.0292,2.0828 h -8.6868 c -1.8796,0 -3.6576,-0.762 -4.9784,-2.0828 -1.3208,-1.3208 -2.0828,-3.0988 -2.0828,-4.9784 v -21.1328 c 0,-1.8796 0.762,-3.6576 2.0828,-4.9784 1.3208,-1.3208 3.0988,-2.0828 4.9784,-2.0828 h 8.6868 c 1.8796,0 3.7084,0.762 5.0292,2.0828 1.3208,1.3208 2.032,3.0988 2.032,4.9784 z m 35.61077,-9.144 h -16.8148 c -5.0292,0 -9.0932,4.1148 -9.0932,9.144 v 2.4892 c 0,5.0292 4.064,9.0932 9.0932,9.0932 h 8.6868 c 3.9116,0 7.0612,3.1496 7.0612,7.0612 v 2.4892 c 0,3.9116 -3.1496,7.0612 -7.0612,7.0612 h -16.764 c -0.5588,0 -1.016,0.4572 -1.016,1.016 0,0.5588 0.4572,1.016 1.016,1.016 h 16.764 c 5.08,0 9.144,-4.064 9.144,-9.0932 v -2.4892 c 0,-5.0292 -4.064,-9.144 -9.144,-9.144 h -8.6868 c -3.9116,0 -7.0612,-3.1496 -7.0612,-7.0104 v -2.4892 c 0,-3.9116 3.1496,-7.0612 7.0612,-7.0612 h 16.8148 c 0.5588,0 1.016,-0.4572 1.016,-1.016 0,-0.6096 -0.4572,-1.0668 -1.016,-1.0668 z m 34.54396,0 h -24.892 c -0.5588,0 -1.016,0.4572 -1.016,1.0668 v 37.2872 c 0,0.5588 0.4572,1.016 1.016,1.016 h 24.892 c 0.5588,0 1.016,-0.4572 1.016,-1.016 0,-0.5588 -0.4572,-1.016 -1.016,-1.016 h -23.876 v -35.2552 h 23.876 c 0.5588,0 1.016,-0.4572 1.016,-1.016 0,-0.6096 -0.4572,-1.0668 -1.016,-1.0668 z m -22.4028,20.7264 h 22.4028 c 0.5588,0 1.016,-0.4572 1.016,-1.016 0,-0.5588 -0.4572,-1.0668 -1.016,-1.0668 h -22.4028 c -0.5588,0 -1.0668,0.508 -1.0668,1.0668 0,0.5588 0.508,1.016 1.0668,1.016 z m 64.00797,-2.0828 h -8.5344 c -0.5588,0 -1.016,0.508 -1.016,1.0668 0,0.5588 0.4572,1.016 1.016,1.016 h 9.1948 l 5.9944,17.9832 c 0.2032,0.508 0.762,0.8128 1.3208,0.6096 0.5588,-0.1524 0.8636,-0.762 0.6604,-1.27 l -6.1976,-18.6436 c 0,0 -0.0508,-0.0508 -0.0508,-0.0508 l -6.1976,-18.6436 c -0.1524,-0.4064 -0.508,-0.7112 -0.9652,-0.7112 -0.4572,0 -0.8636,0.3048 -1.016,0.7112 l -12.3952,37.338 c -0.2032,0.508 0.1016,1.1176 0.6096,1.27 0.5588,0.2032 1.1684,-0.1016 1.3208,-0.6096 0,0 8.5344,-25.5524 11.4808,-34.3916 z m 18.33876,19.7104 v -33.8836 c 5.842,8.7376 23.0124,34.4424 23.0124,34.4424 0.254,0.4064 0.7112,0.5588 1.1176,0.4572 0.4572,-0.1524 0.762,-0.5588 0.762,-1.016 v -37.2872 c 0,-0.6096 -0.4572,-1.0668 -1.016,-1.0668 -0.6096,0 -1.0668,0.4572 -1.0668,1.0668 v 33.8836 l -22.9616,-34.4932 c -0.254,-0.3556 -0.7112,-0.5588 -1.1684,-0.4064 -0.4572,0.1524 -0.7112,0.5588 -0.7112,1.016 v 37.2872 c 0,0.5588 0.4572,1.0668 1.016,1.0668 0.5588,0 1.016,-0.508 1.016,-1.0668 z"
         id="path5" />
      <path
         style="stroke-width:3.5"
         d="m 49.642069,89.74222 h -24.892 c -0.5588,0 -1.016,0.4572 -1.016,1.0668 v 37.2872 c 0,0.5588 0.4572,1.016 1.016,1.016 h 24.892 c 0.5588,0 1.016,-0.4572 1.016,-1.016 0,-0.5588 -0.4572,-1.016 -1.016,-1.016 h -23.876 v -35.2552 h 23.876 c 0.5588,0 1.016,-0.4572 1.016,-1.016 0,-0.6096 -0.4572,-1.0668 -1.016,-1.0668 z m -22.4028,20.7264 h 22.4028 c 0.5588,0 1.016,-0.4572 1.016,-1.016 0,-0.5588 -0.4572,-1.0668 -1.016,-1.0668 h -22.4028 c -0.5588,0 -1.0668,0.508 -1.0668,1.0668 0,0.5588 0.508,1.016 1.0668,1.016 z m 44.500768,-2.8956 -11.5824,-17.3736 c -0.3048,-0.4572 -0.9652,-0.6096 -1.4224,-0.254 -0.508,0.3048 -0.6096,0.9652 -0.3048,1.4224 l 12.0396,18.0848 -12.0396,18.0848 c -0.3048,0.4572 -0.2032,1.1176 0.3048,1.4224 0.4572,0.3048 1.1176,0.2032 1.4224,-0.3048 l 11.5824,-17.3228 11.5824,17.3228 c 0.3048,0.508 0.9652,0.6096 1.4224,0.3048 0.4572,-0.3048 0.6096,-0.9652 0.3048,-1.4224 l -12.0904,-18.0848 12.0904,-18.0848 c 0.3048,-0.4572 0.1524,-1.1176 -0.3048,-1.4224 -0.4572,-0.3556 -1.1176,-0.2032 -1.4224,0.254 z m 21.081969,-16.764 v 37.2872 c 0,0.5588 0.4572,1.016 1.016,1.016 0.5588,0 1.016,-0.4572 1.016,-1.016 v -37.2872 c 0,-0.6096 -0.4572,-1.0668 -1.016,-1.0668 -0.5588,0 -1.016,0.4572 -1.016,1.0668 z m 35.559974,-1.0668 h -16.8148 c -5.0292,0 -9.0932,4.1148 -9.0932,9.144 v 2.4892 c 0,5.0292 4.064,9.0932 9.0932,9.0932 h 8.6868 c 3.9116,0 7.0612,3.1496 7.0612,7.0612 v 2.4892 c 0,3.9116 -3.1496,7.0612 -7.0612,7.0612 h -16.764 c -0.5588,0 -1.016,0.4572 -1.016,1.016 0,0.5588 0.4572,1.016 1.016,1.016 h 16.764 c 5.08,0 9.144,-4.064 9.144,-9.0932 v -2.4892 c 0,-5.0292 -4.064,-9.144 -9.144,-9.144 h -8.6868 c -3.9116,0 -7.0612,-3.1496 -7.0612,-7.0104 v -2.4892 c 0,-3.9116 3.1496,-7.0612 7.0612,-7.0612 h 16.8148 c 0.5588,0 1.016,-0.4572 1.016,-1.016 0,-0.6096 -0.4572,-1.0668 -1.016,-1.0668 z m 34.54397,0 h -24.892 c -0.5588,0 -1.016,0.4572 -1.016,1.0668 0,0.5588 0.4572,1.016 1.016,1.016 h 11.3792 v 36.2712 c 0,0.5588 0.4572,1.016 1.0668,1.016 0.5588,0 1.016,-0.4572 1.016,-1.016 v -36.2712 h 11.43 c 0.5588,0 1.016,-0.4572 1.016,-1.016 0,-0.6096 -0.4572,-1.0668 -1.016,-1.0668 z m 8.63597,1.0668 v 37.2872 c 0,0.5588 0.4572,1.016 1.016,1.016 0.5588,0 1.016,-0.4572 1.016,-1.016 v -37.2872 c 0,-0.6096 -0.4572,-1.0668 -1.016,-1.0668 -0.5588,0 -1.016,0.4572 -1.016,1.0668 z m 11.68398,37.2872 v -33.8836 c 5.842,8.7376 23.0124,34.4424 23.0124,34.4424 0.254,0.4064 0.7112,0.5588 1.1176,0.4572 0.4572,-0.1524 0.762,-0.5588 0.762,-1.016 v -37.2872 c 0,-0.6096 -0.4572,-1.0668 -1.016,-1.0668 -0.6096,0 -1.0668,0.4572 -1.0668,1.0668 v 33.8836 l -22.9616,-34.4932 c -0.254,-0.3556 -0.7112,-0.5588 -1.1684,-0.4064 -0.4572,0.1524 -0.7112,0.5588 -0.7112,1.016 v 37.2872 c 0,0.5588 0.4572,1.0668 1.016,1.0668 0.5588,0 1.016,-0.508 1.016,-1.0668 z m 56.08316,-17.6276 h 2.3368 c 0.5588,0 1.016,-0.4572 1.016,-1.016 0,-0.5588 -0.4572,-1.016 -1.016,-1.016 h -12.446 v 0 c -0.4572,0 -0.8636,0.254 -0.9652,0.6604 v 0 h -0.0508 v 0 0.0508 0 0 0 0 0 0 0 0 0.0508 0 0 0 0 0 0 0 0.0508 0 0 0 0 0 0 0 0.0508 0 0 0 0 0 0 0 l -0.0508,0.0508 v 0 0 0 0 0 0 0 0.0508 0 0 0 0 0 0 0.0508 0 0 0 0 0 0 0 0.0508 0 0 0 0 0 0 0 0.0508 0 0 0 0 0 h 0.0508 v 0.0508 0 0 0 0 0 0 0 0.0508 0 0 0 0 0 0 0 0.0508 0 0 0 0 0 0 0 0.0508 0 0 0 0 0 0 0 0 0.0508 h 0.0508 v 0 0 0 0 0 0 0.0508 0 0 0 0 0 0 0 0 0.0508 0 0 0 0 h 0.0508 v 0 0 0 0.0508 0 0 0 0 0 0 0 0 0.0508 0 0 0 h 0.0508 v 0 0 0 0 0 0.0508 0 0 0 0 0 0 0 h 0.0508 v 0 0.0508 0 0 0 0 0 0 0 0 0 0.0508 h 0.0508 v 0 0 0 0 0 0 0 0 0 0.0508 0 h 0.0508 v 0 0 0 0 0 0 0 0 0 0 l 0.0508,0.0508 v 0 0 0 0 0 0 0 0 0 h 0.0508 v 0 0 0.0508 0 0 0 0 0 0 h 0.0508 v 0 0 0 0 0 0 0 0 0.0508 h 0.0508 v 0 0 0 0 0 0 0 0 h 0.0508 v 0 0 0 0 0 0 0.0508 0 h 0.0508 v 0 0 0 0 0 0 0 0 h 0.0508 v 0 0 0 0 0 0 0 h 0.0508 v 0 0 0 0 0.0508 0 0 h 0.0508 v 0 0 0 0 0 0 0 h 0.0508 v 0 0 0 0 0 0 0 h 0.0508 v 0 0 0 0 0 0 0 h 0.0508 v 0 0 0 0 0 0 0 h 0.0508 v 0 0 0 0 0 0 0 h 0.0508 v 0 h 4.318 c 3.9116,0 7.0612,3.1496 7.0612,7.0612 v 2.4892 c 0,3.9116 -3.1496,7.0612 -7.0612,7.0612 h -8.6868 c -1.8796,0 -3.6576,-0.762 -4.9784,-2.0828 -1.3208,-1.3208 -2.0828,-3.0988 -2.0828,-4.9784 v -21.1328 c 0,-1.8796 0.762,-3.6576 2.0828,-4.9784 1.3208,-1.3208 3.0988,-2.0828 4.9784,-2.0828 h 8.6868 c 3.9116,0 7.0612,3.1496 7.0612,7.0612 v 4.318 c 0,0.6096 0.4572,1.0668 1.0668,1.0668 0.5588,0 1.016,-0.4572 1.016,-1.0668 v -4.318 c 0,-5.0292 -4.064,-9.144 -9.144,-9.144 h -8.6868 c -2.4384,0 -4.7244,0.9652 -6.4516,2.6924 -1.7272,1.6764 -2.6416,4.0132 -2.6416,6.4516 v 21.1328 c 0,2.4384 0.9144,4.7244 2.6416,6.4516 1.7272,1.7272 4.0132,2.6416 6.4516,2.6416 h 8.6868 c 5.08,0 9.144,-4.064 9.144,-9.0932 v -2.4892 c 0,-2.8448 -1.3208,-5.3848 -3.3528,-7.0612 z m 43.94197,-2.0828 h -8.5344 c -0.5588,0 -1.016,0.508 -1.016,1.0668 0,0.5588 0.4572,1.016 1.016,1.016 h 9.1948 l 5.9944,17.9832 c 0.2032,0.508 0.762,0.8128 1.3208,0.6096 0.5588,-0.1524 0.8636,-0.762 0.6604,-1.27 l -6.1976,-18.6436 c 0,0 -0.0508,-0.0508 -0.0508,-0.0508 l -6.1976,-18.6436 c -0.1524,-0.4064 -0.508,-0.7112 -0.9652,-0.7112 -0.4572,0 -0.8636,0.3048 -1.016,0.7112 l -12.3952,37.338 c -0.2032,0.508 0.1016,1.1176 0.6096,1.27 0.5588,0.2032 1.1684,-0.1016 1.3208,-0.6096 0,0 8.5344,-25.5524 11.4808,-34.3916 z m 42.21476,-18.6436 h -16.8148 c -5.0292,0 -9.0932,4.1148 -9.0932,9.144 v 2.4892 c 0,5.0292 4.064,9.0932 9.0932,9.0932 h 8.6868 c 3.9116,0 7.0612,3.1496 7.0612,7.0612 v 2.4892 c 0,3.9116 -3.1496,7.0612 -7.0612,7.0612 h -16.764 c -0.5588,0 -1.016,0.4572 -1.016,1.016 0,0.5588 0.4572,1.016 1.016,1.016 h 16.764 c 5.08,0 9.144,-4.064 9.144,-9.0932 v -2.4892 c 0,-5.0292 -4.064,-9.144 -9.144,-9.144 h -8.6868 c -3.9116,0 -7.0612,-3.1496 -7.0612,-7.0104 v -2.4892 c 0,-3.9116 3.1496,-7.0612 7.0612,-7.0612 h 16.8148 c 0.5588,0 1.016,-0.4572 1.016,-1.016 0,-0.6096 -0.4572,-1.0668 -1.016,-1.0668 z m 34.54397,0 h -24.892 c -0.5588,0 -1.016,0.4572 -1.016,1.0668 0,0.5588 0.4572,1.016 1.016,1.016 h 11.3792 v 36.2712 c 0,0.5588 0.4572,1.016 1.0668,1.016 0.5588,0 1.016,-0.4572 1.016,-1.016 v -36.2712 h 11.43 c 0.5588,0 1.016,-0.4572 1.016,-1.016 0,-0.6096 -0.4572,-1.0668 -1.016,-1.0668 z m 34.54398,0 h -24.892 c -0.5588,0 -1.016,0.4572 -1.016,1.0668 v 37.2872 c 0,0.5588 0.4572,1.016 1.016,1.016 h 24.892 c 0.5588,0 1.016,-0.4572 1.016,-1.016 0,-0.5588 -0.4572,-1.016 -1.016,-1.016 h -23.876 v -35.2552 h 23.876 c 0.5588,0 1.016,-0.4572 1.016,-1.016 0,-0.6096 -0.4572,-1.0668 -1.016,-1.0668 z m -22.4028,20.7264 h 22.4028 c 0.5588,0 1.016,-0.4572 1.016,-1.016 0,-0.5588 -0.4572,-1.0668 -1.016,-1.0668 h -22.4028 c -0.5588,0 -1.0668,0.508 -1.0668,1.0668 0,0.5588 0.508,1.016 1.0668,1.016 z m 43.94195,0 12.1412,18.1864 c 0.3048,0.508 0.9652,0.6096 1.4224,0.3048 0.4572,-0.3048 0.6096,-0.9652 0.3048,-1.4224 l -11.3792,-17.0688 h 2.3876 c 5.08,0 9.144,-4.064 9.144,-9.0932 v -2.4892 c 0,-5.0292 -4.064,-9.144 -9.144,-9.144 h -16.764 c -0.5588,0 -1.016,0.4572 -1.016,1.0668 v 37.2872 c 0,0.5588 0.4572,1.016 1.016,1.016 0.5588,0 1.016,-0.4572 1.016,-1.016 v -36.2712 h 15.748 c 3.9116,0 7.0612,3.1496 7.0612,7.0612 v 2.4892 c 0,3.8608 -3.1496,7.0104 -7.0612,7.0104 h -14.2748 c -0.5588,0 -1.0668,0.508 -1.0668,1.0668 0,0.5588 0.508,1.016 1.0668,1.016 z m 48.56477,-11.5824 c 0,-2.4384 -0.9652,-4.7752 -2.6924,-6.4516 -1.6764,-1.7272 -4.0132,-2.6924 -6.4516,-2.6924 h -8.6868 c -2.4384,0 -4.7244,0.9652 -6.4516,2.6924 -1.7272,1.6764 -2.6416,4.0132 -2.6416,6.4516 v 21.1328 c 0,2.4384 0.9144,4.7244 2.6416,6.4516 1.7272,1.7272 4.0132,2.6416 6.4516,2.6416 h 8.6868 c 2.4384,0 4.7752,-0.9144 6.4516,-2.6416 1.7272,-1.7272 2.6924,-4.0132 2.6924,-6.4516 z m -2.0828,0 v 21.1328 c 0,1.8796 -0.7112,3.6576 -2.032,4.9784 -1.3208,1.3208 -3.1496,2.0828 -5.0292,2.0828 h -8.6868 c -1.8796,0 -3.6576,-0.762 -4.9784,-2.0828 -1.3208,-1.3208 -2.0828,-3.0988 -2.0828,-4.9784 v -21.1328 c 0,-1.8796 0.762,-3.6576 2.0828,-4.9784 1.3208,-1.3208 3.0988,-2.0828 4.9784,-2.0828 h 8.6868 c 1.8796,0 3.7084,0.762 5.0292,2.0828 1.3208,1.3208 2.032,3.0988 2.032,4.9784 z m 9.70278,-8.0772 v 37.2872 c 0,0.5588 0.4572,1.016 1.016,1.016 0.5588,0 1.016,-0.4572 1.016,-1.016 v -37.2872 c 0,-0.6096 -0.4572,-1.0668 -1.016,-1.0668 -0.5588,0 -1.016,0.4572 -1.016,1.0668 z m 10.66797,-1.0668 c -0.5588,0 -1.016,0.4572 -1.016,1.0668 v 37.2872 c 0,0.5588 0.4572,1.016 1.016,1.016 h 16.764 c 2.4384,0 4.7752,-0.9144 6.4516,-2.6416 1.7272,-1.7272 2.6924,-4.0132 2.6924,-6.4516 v -21.1328 c 0,-2.4384 -0.9652,-4.7752 -2.6924,-6.4516 -1.6764,-1.7272 -4.0132,-2.6924 -6.4516,-2.6924 z m 1.016,2.0828 h 15.748 c 1.8796,0 3.7084,0.762 5.0292,2.0828 1.3208,1.3208 2.032,3.0988 2.032,4.9784 v 21.1328 c 0,1.8796 -0.7112,3.6576 -2.032,4.9784 -1.3208,1.3208 -3.1496,2.0828 -5.0292,2.0828 h -15.748 z"
         id="path6" />
    </g>
    <rect
       style="fill:#d35f5f;fill-opacity:1;stroke-width:2.86288;stroke-linecap:square"
       id="rect2-1"
       width="543.04584"
       height="116.7538"
       x="-3.5202384"
       y="965.76453" />
    <rect
       style="fill:#ffffff;fill-opacity:1;stroke-width:3.17147;stroke-linecap:square"
       id="rect3"
       width="12.522605"
       height="24.150738"
       x="-338.30621"
       y="1095.9576"
       transform="rotate(-42.189447)" />
    <ellipse
       style="fill:#ffffff;fill-opacity:1;stroke-width:2.35215;stroke-linecap:square"
       id="path3"
       cx="387.19949"
       cy="1067.5728"
       rx="24.174711"
       ry="24.576017"
       transform="matrix(0.99426892,-0.10690795,0.08852673,0.9960738,0,0)" />
    <ellipse
       style="fill:#d35f5f;fill-opacity:1;stroke-width:3.19346;stroke-linecap:square"
       id="path4"
       ry="16.667374"
       rx="16.173811"
       cy="1022.4304"
       cx="479.58569" />
    <rect
       style="fill:#e6a6a6;fill-opacity:1;stroke-width:3.49999;stroke-linecap:square"
       id="rect4"
       width="386.08847"
       height="76.610832"
       x="25.324009"
       y="986.28583"
       ry="38.305416" />
    <rect
       style="fill:#e6a6a6;fill-opacity:1;stroke-width:3.64509;stroke-linecap:square"
       id="rect5"
       width="546.41608"
       height="799.60352"
       x="-5.5840192"
       y="168.91656"
       ry="0" />
  </g>
</svg>
