<?xml version="1.0" encoding="UTF-8" standalone="no"?>
<!-- Created with Inkscape (http://www.inkscape.org/) -->

<svg
   width="800"
   height="400"
   viewBox="0 0 211.66666 105.83333"
   version="1.1"
   id="svg1"
   inkscape:version="1.4.2 (f4327f4, 2025-05-13)"
   sodipodi:docname="begin.svg"
   xmlns:inkscape="http://www.inkscape.org/namespaces/inkscape"
   xmlns:sodipodi="http://sodipodi.sourceforge.net/DTD/sodipodi-0.dtd"
   xmlns="http://www.w3.org/2000/svg"
   xmlns:svg="http://www.w3.org/2000/svg">
  <sodipodi:namedview
     id="namedview1"
     pagecolor="#ffffff"
     bordercolor="#000000"
     borderopacity="0.25"
     inkscape:showpageshadow="2"
     inkscape:pageopacity="0.0"
     inkscape:pagecheckerboard="0"
     inkscape:deskcolor="#d1d1d1"
     inkscape:document-units="mm"
     inkscape:zoom="0.75811588"
     inkscape:cx="691.84674"
     inkscape:cy="184.00881"
     inkscape:window-width="1920"
     inkscape:window-height="1111"
     inkscape:window-x="-9"
     inkscape:window-y="-9"
     inkscape:window-maximized="1"
     inkscape:current-layer="layer1" />
  <defs
     id="defs1" />
  <g
     inkscape:label="Layer 1"
     inkscape:groupmode="layer"
     id="layer1">
    <path
       style="font-size:57.392px;font-family:Drexs;-inkscape-font-specification:Drexs;letter-spacing:7.13602px;fill:#ffffff;stroke-width:0.422"
       d="m 43.639297,52.009 c 3.271344,-1.72176 5.509632,-5.16528 5.509632,-9.125327 v -2.812208 c 0,-5.681808 -4.59136,-10.33056 -10.33056,-10.33056 H 19.87901 c -0.631312,0 -1.14784,0.516528 -1.14784,1.205232 v 42.125727 c 0,0.631312 0.516528,1.14784 1.14784,1.14784 h 18.939359 c 5.7392,0 10.33056,-4.59136 10.33056,-10.273168 v -2.812208 c 0,-3.960048 -2.238288,-7.403568 -5.509632,-9.125328 z M 21.02685,32.093977 h 17.791519 c 4.419184,0 7.977488,3.558304 7.977488,7.977488 v 2.812208 c 0,4.361791 -3.558304,7.920095 -7.977488,7.920095 H 22.691218 c -0.631312,0 -1.205232,0.57392 -1.205232,1.205232 0,0.631312 0.57392,1.14784 1.205232,1.14784 h 16.127151 c 4.419184,0 7.977488,3.558304 7.977488,7.977488 v 2.812208 c 0,4.419184 -3.558304,7.977488 -7.977488,7.977488 H 21.02685 Z M 91.867952,29.740905 H 63.745873 c -0.631312,0 -1.14784,0.516528 -1.14784,1.205232 v 42.125727 c 0,0.631312 0.516528,1.14784 1.14784,1.14784 h 28.122079 c 0.631312,0 1.14784,-0.516528 1.14784,-1.14784 0,-0.631312 -0.516528,-1.14784 -1.14784,-1.14784 H 64.893713 V 32.093977 h 26.974239 c 0.631312,0 1.14784,-0.516528 1.14784,-1.14784 0,-0.688704 -0.516528,-1.205232 -1.14784,-1.205232 z M 66.558081,53.15684 h 25.309871 c 0.631312,0 1.14784,-0.516528 1.14784,-1.14784 0,-0.631312 -0.516528,-1.205232 -1.14784,-1.205232 H 66.558081 c -0.631312,0 -1.205232,0.57392 -1.205232,1.205232 0,0.631312 0.57392,1.14784 1.205232,1.14784 z m 66.536699,0 h 2.64004 c 0.63131,0 1.14784,-0.516528 1.14784,-1.14784 0,-0.631312 -0.51653,-1.14784 -1.14784,-1.14784 h -14.06104 v 0 c -0.51653,0 -0.97567,0.28696 -1.09045,0.746096 v 0 h -0.0574 v 0 0.05739 0 0 0 0 0 0 0 0 0.05739 0 0 0 0 0 0 0 0.05739 0 0 0 0 0 0 0 0.05739 0 0 0 0 0 0 0 l -0.0574,0.05739 v 0 0 0 0 0 0 0 0.05739 0 0 0 0 0 0 0.05739 0 0 0 0 0 0 0 0.05739 0 0 0 0 0 0 0 0.05739 0 0 0 0 0 h 0.0574 v 0.05739 0 0 0 0 0 0 0 0.05739 0 0 0 0 0 0 0 0.05739 0 0 0 0 0 0 0 0.05739 0 0 0 0 0 0 0 0 0.05739 h 0.0574 v 0 0 0 0 0 0 0.05739 0 0 0 0 0 0 0 0 0.05739 0 0 0 0 h 0.0574 v 0 0 0 0.05739 0 0 0 0 0 0 0 0 0.05739 0 0 0 h 0.0574 v 0 0 0 0 0 0.05739 0 0 0 0 0 0 0 h 0.0574 v 0 0.05739 0 0 0 0 0 0 0 0 0 0.05739 h 0.0574 v 0 0 0 0 0 0 0 0 0 0.05739 0 h 0.0574 v 0 0 0 0 0 0 0 0 0 0 l 0.0574,0.05739 v 0 0 0 0 0 0 0 0 0 h 0.0574 v 0 0 0.05739 0 0 0 0 0 0 h 0.0574 v 0 0 0 0 0 0 0 0 0.05739 h 0.0574 v 0 0 0 0 0 0 0 0 h 0.0574 v 0 0 0 0 0 0 0.05739 0 h 0.0574 v 0 0 0 0 0 0 0 0 h 0.0574 v 0 0 0 0 0 0 0 h 0.0574 v 0 0 0 0 0.05739 0 0 h 0.0574 v 0 0 0 0 0 0 0 h 0.0574 v 0 0 0 0 0 0 0 h 0.0574 v 0 0 0 0 0 0 0 h 0.0574 v 0 0 0 0 0 0 0 h 0.0574 v 0 0 0 0 0 0 0 h 0.0574 v 0 h 4.87832 c 4.41918,0 7.97748,3.558304 7.97748,7.977488 v 2.812208 c 0,4.419184 -3.5583,7.977488 -7.97748,7.977488 h -9.81404 c -2.1235,0 -4.13222,-0.86088 -5.62441,-2.353072 -1.49219,-1.492192 -2.35307,-3.500912 -2.35307,-5.624416 V 40.071465 c 0,-2.123504 0.86088,-4.132224 2.35307,-5.624416 1.49219,-1.492192 3.50091,-2.353072 5.62441,-2.353072 h 9.81404 c 4.41918,0 7.97748,3.558304 7.97748,7.977488 v 4.87832 c 0,0.688704 0.51653,1.205232 1.20524,1.205232 0.63131,0 1.14784,-0.516528 1.14784,-1.205232 v -4.87832 c 0,-5.681808 -4.59136,-10.33056 -10.33056,-10.33056 h -9.81404 c -2.75481,0 -5.33745,1.090448 -7.28878,3.041776 -1.95133,1.893936 -2.98438,4.533968 -2.98438,7.288784 v 23.875071 c 0,2.754816 1.03305,5.337456 2.98438,7.288784 1.95133,1.951328 4.53397,2.984384 7.28878,2.984384 h 9.81404 c 5.7392,0 10.33056,-4.59136 10.33056,-10.273168 v -2.812208 c 0,-3.213952 -1.4922,-6.083552 -3.78788,-7.977488 z m 17.23698,-22.210703 v 42.125727 c 0,0.631312 0.51652,1.14784 1.14784,1.14784 0.63131,0 1.14784,-0.516528 1.14784,-1.14784 V 30.946137 c 0,-0.688704 -0.51653,-1.205232 -1.14784,-1.205232 -0.63132,0 -1.14784,0.516528 -1.14784,1.205232 z m 18.04047,42.125727 V 34.791401 c 6.60008,9.871424 25.99858,38.911775 25.99858,38.911775 0.28696,0.459136 0.80349,0.631312 1.26262,0.516528 0.51653,-0.172176 0.86088,-0.631312 0.86088,-1.14784 V 30.946137 c 0,-0.688704 -0.51653,-1.205232 -1.14784,-1.205232 -0.6887,0 -1.20523,0.516528 -1.20523,1.205232 V 69.2266 L 168.20006,30.257433 c -0.28696,-0.401744 -0.80349,-0.631312 -1.32002,-0.459136 -0.51653,0.172176 -0.80349,0.631312 -0.80349,1.14784 v 42.125727 c 0,0.631312 0.51653,1.205232 1.14784,1.205232 0.63131,0 1.14784,-0.57392 1.14784,-1.205232 z"
       id="text1"
       aria-label="BEGIN" />
  </g>
</svg>
