<?xml version="1.0" encoding="UTF-8" standalone="no"?>
<!-- Created with Inkscape (http://www.inkscape.org/) -->

<svg
   width="1920"
   height="200"
   viewBox="0 0 507.99999 52.916666"
   version="1.1"
   id="svg1"
   inkscape:version="1.4.2 (f4327f4, 2025-05-13)"
   sodipodi:docname="earthvsastroidtitle.svg"
   xmlns:inkscape="http://www.inkscape.org/namespaces/inkscape"
   xmlns:sodipodi="http://sodipodi.sourceforge.net/DTD/sodipodi-0.dtd"
   xmlns="http://www.w3.org/2000/svg"
   xmlns:svg="http://www.w3.org/2000/svg">
  <sodipodi:namedview
     id="namedview1"
     pagecolor="#ffffff"
     bordercolor="#000000"
     borderopacity="0.25"
     inkscape:showpageshadow="2"
     inkscape:pageopacity="0.0"
     inkscape:pagecheckerboard="0"
     inkscape:deskcolor="#d1d1d1"
     inkscape:document-units="mm"
     inkscape:zoom="0.53606888"
     inkscape:cx="857.16597"
     inkscape:cy="73.684561"
     inkscape:window-width="1920"
     inkscape:window-height="1111"
     inkscape:window-x="-9"
     inkscape:window-y="-9"
     inkscape:window-maximized="1"
     inkscape:current-layer="layer1" />
  <defs
     id="defs1" />
  <rect
     style="fill:#1d1d1d;fill-opacity:0.5;stroke-width:0.264583"
     id="rect1"
     width="510.34329"
     height="54.29184"
     x="-1.4806865"
     y="-0.49356219" />
  <g
     inkscape:label="Layer 1"
     inkscape:groupmode="layer"
     id="layer1">
    <path
       d="M 68.699663,12.091482 H 51.067846 c -0.395816,0 -0.719666,0.323849 -0.719666,0.755649 v 26.411742 c 0,0.395816 0.32385,0.719666 0.719666,0.719666 h 17.631817 c 0.395816,0 0.719666,-0.32385 0.719666,-0.719666 0,-0.395817 -0.32385,-0.719666 -0.719666,-0.719666 H 51.787512 v -24.97241 h 16.912151 c 0.395816,0 0.719666,-0.32385 0.719666,-0.719666 0,-0.4318 -0.32385,-0.755649 -0.719666,-0.755649 z M 52.831028,26.772668 h 15.868635 c 0.395816,0 0.719666,-0.32385 0.719666,-0.719666 0,-0.395817 -0.32385,-0.75565 -0.719666,-0.75565 H 52.831028 c -0.395817,0 -0.75565,0.359833 -0.75565,0.75565 0,0.395816 0.359833,0.719666 0.75565,0.719666 z M 90.769574,25.297352 H 84.72438 c -0.395817,0 -0.719666,0.359833 -0.719666,0.75565 0,0.395816 0.323849,0.719666 0.719666,0.719666 h 6.512977 l 4.246029,12.738088 c 0.143933,0.359833 0.53975,0.575732 0.935566,0.431799 0.395816,-0.10795 0.611716,-0.539749 0.467783,-0.899582 L 92.496772,25.837102 c 0,0 -0.03598,-0.03598 -0.03598,-0.03598 L 88.070826,12.595248 c -0.107949,-0.287867 -0.359833,-0.503766 -0.683682,-0.503766 -0.32385,0 -0.611716,0.215899 -0.719666,0.503766 l -8.779925,26.447725 c -0.143933,0.359833 0.07197,0.791632 0.431799,0.899582 0.395817,0.143933 0.827616,-0.07197 0.935566,-0.431799 0,0 6.045194,-18.0996 8.132226,-24.360694 z m 23.725146,1.475316 8.60001,12.882021 c 0.2159,0.359833 0.68368,0.431799 1.00753,0.2159 0.32385,-0.2159 0.4318,-0.683683 0.2159,-1.007533 L 116.2579,26.772668 h 1.69121 c 3.59833,0 6.477,-2.878664 6.477,-6.441011 v -1.763182 c 0,-3.562346 -2.87867,-6.476993 -6.477,-6.476993 h -11.87449 c -0.39581,0 -0.71966,0.323849 -0.71966,0.755649 v 26.411742 c 0,0.395816 0.32385,0.719666 0.71966,0.719666 0.39582,0 0.71967,-0.32385 0.71967,-0.719666 V 13.566797 h 11.15482 c 2.77072,0 5.00168,2.230964 5.00168,5.001678 v 1.763182 c 0,2.734731 -2.23096,4.965695 -5.00168,4.965695 h -10.1113 c -0.39582,0 -0.75565,0.359833 -0.75565,0.75565 0,0.395816 0.35983,0.719666 0.75565,0.719666 z m 36.71511,-14.681186 h -17.63181 c -0.39582,0 -0.71967,0.323849 -0.71967,0.755649 0,0.395816 0.32385,0.719666 0.71967,0.719666 h 8.06026 v 25.692076 c 0,0.395816 0.32384,0.719666 0.75564,0.719666 0.39582,0 0.71967,-0.32385 0.71967,-0.719666 V 13.566797 h 8.09624 c 0.39582,0 0.71967,-0.32385 0.71967,-0.719666 0,-0.4318 -0.32385,-0.755649 -0.71967,-0.755649 z m 9.87157,0 c -0.39581,0 -0.71966,0.323849 -0.71966,0.755649 v 26.411742 c 0,0.395816 0.32385,0.719666 0.71966,0.719666 0.39582,0 0.71967,-0.32385 0.71967,-0.719666 V 12.847131 c 0,-0.4318 -0.32385,-0.755649 -0.71967,-0.755649 z m 17.63182,0 c -0.4318,0 -0.75565,0.323849 -0.75565,0.755649 v 12.450221 h -15.11298 c -0.39582,0 -0.75565,0.359833 -0.75565,0.75565 0,0.395816 0.35983,0.719666 0.75565,0.719666 h 15.11298 v 12.486205 c 0,0.395816 0.32385,0.719666 0.75565,0.719666 0.39582,0 0.71967,-0.32385 0.71967,-0.719666 V 26.053002 12.847131 c 0,-0.4318 -0.32385,-0.755649 -0.71967,-0.755649 z m 22.65782,0.971549 8.77993,26.447725 c 0.10795,0.287866 0.39581,0.503766 0.71966,0.503766 0.32385,0 0.57573,-0.2159 0.68368,-0.503766 l 8.81591,-26.447725 c 0.14394,-0.395817 -0.072,-0.791633 -0.46778,-0.935566 -0.39582,-0.10795 -0.79163,0.07197 -0.93557,0.467783 0,0 -6.00921,18.099599 -8.09624,24.360693 l -8.13222,-24.360693 c -0.10795,-0.395817 -0.53975,-0.575733 -0.93557,-0.467783 -0.35983,0.143933 -0.57573,0.539749 -0.4318,0.935566 z m 45.81889,-0.971549 h -11.91047 c -3.56235,0 -6.44101,2.914647 -6.44101,6.476993 v 1.763182 c 0,3.562347 2.87866,6.441011 6.44101,6.441011 h 6.15314 c 2.77071,0 5.00168,2.230964 5.00168,5.001678 v 1.763182 c 0,2.770714 -2.23097,5.001679 -5.00168,5.001679 h -11.87449 c -0.39582,0 -0.71966,0.323849 -0.71966,0.719666 0,0.395816 0.32384,0.719666 0.71966,0.719666 h 11.87449 c 3.59833,0 6.47699,-2.878664 6.47699,-6.441011 v -1.763182 c 0,-3.562346 -2.87866,-6.476994 -6.47699,-6.476994 h -6.15314 c -2.77072,0 -5.00168,-2.230964 -5.00168,-4.965695 v -1.763182 c 0,-2.770714 2.23096,-5.001678 5.00168,-5.001678 h 11.91047 c 0.39581,0 0.71966,-0.32385 0.71966,-0.719666 0,-0.4318 -0.32385,-0.755649 -0.71966,-0.755649 z m 35.53983,13.20587 h -6.04519 c -0.39582,0 -0.71967,0.359833 -0.71967,0.75565 0,0.395816 0.32385,0.719666 0.71967,0.719666 h 6.51297 l 4.24603,12.738088 c 0.14394,0.359833 0.53975,0.575732 0.93557,0.431799 0.39582,-0.10795 0.61172,-0.539749 0.46778,-0.899582 l -4.38996,-13.205871 c 0,0 -0.036,-0.03598 -0.036,-0.03598 l -4.38997,-13.205871 c -0.10795,-0.287867 -0.35983,-0.503766 -0.68368,-0.503766 -0.32385,0 -0.61171,0.215899 -0.71966,0.503766 l -8.77993,26.447725 c -0.14393,0.359833 0.072,0.791632 0.4318,0.899582 0.39582,0.143933 0.82762,-0.07197 0.93557,-0.431799 0,0 6.04519,-18.0996 8.13222,-24.360694 z m 32.93687,-13.20587 h -11.91047 c -3.56235,0 -6.44102,2.914647 -6.44102,6.476993 v 1.763182 c 0,3.562347 2.87867,6.441011 6.44102,6.441011 h 6.15314 c 2.77071,0 5.00168,2.230964 5.00168,5.001678 v 1.763182 c 0,2.770714 -2.23097,5.001679 -5.00168,5.001679 h -11.87449 c -0.39582,0 -0.71967,0.323849 -0.71967,0.719666 0,0.395816 0.32385,0.719666 0.71967,0.719666 h 11.87449 c 3.59833,0 6.47699,-2.878664 6.47699,-6.441011 v -1.763182 c 0,-3.562346 -2.87866,-6.476994 -6.47699,-6.476994 h -6.15314 c -2.77072,0 -5.00168,-2.230964 -5.00168,-4.965695 v -1.763182 c 0,-2.770714 2.23096,-5.001678 5.00168,-5.001678 h 11.91047 c 0.39581,0 0.71966,-0.32385 0.71966,-0.719666 0,-0.4318 -0.32385,-0.755649 -0.71966,-0.755649 z m 27.5034,0 h -17.63182 c -0.39581,0 -0.71966,0.323849 -0.71966,0.755649 0,0.395816 0.32385,0.719666 0.71966,0.719666 h 8.06026 v 25.692076 c 0,0.395816 0.32385,0.719666 0.75565,0.719666 0.39582,0 0.71967,-0.32385 0.71967,-0.719666 V 13.566797 h 8.09624 c 0.39582,0 0.71967,-0.32385 0.71967,-0.719666 0,-0.4318 -0.32385,-0.755649 -0.71967,-0.755649 z m 27.50339,0 H 353.0416 c -0.39582,0 -0.71966,0.323849 -0.71966,0.755649 v 26.411742 c 0,0.395816 0.32384,0.719666 0.71966,0.719666 h 17.63182 c 0.39581,0 0.71966,-0.32385 0.71966,-0.719666 0,-0.395817 -0.32385,-0.719666 -0.71966,-0.719666 h -16.91215 v -24.97241 h 16.91215 c 0.39581,0 0.71966,-0.32385 0.71966,-0.719666 0,-0.4318 -0.32385,-0.755649 -0.71966,-0.755649 z m -15.86864,14.681186 h 15.86864 c 0.39581,0 0.71966,-0.32385 0.71966,-0.719666 0,-0.395817 -0.32385,-0.75565 -0.71966,-0.75565 h -15.86864 c -0.39581,0 -0.75565,0.359833 -0.75565,0.75565 0,0.395816 0.35984,0.719666 0.75565,0.719666 z m 34.1603,0 8.60001,12.882021 c 0.2159,0.359833 0.68368,0.431799 1.00753,0.2159 0.32385,-0.2159 0.4318,-0.683683 0.2159,-1.007533 l -8.06026,-12.090388 h 1.69122 c 3.59833,0 6.47699,-2.878664 6.47699,-6.441011 v -1.763182 c 0,-3.562346 -2.87866,-6.476993 -6.47699,-6.476993 h -11.87449 c -0.39582,0 -0.71967,0.323849 -0.71967,0.755649 v 26.411742 c 0,0.395816 0.32385,0.719666 0.71967,0.719666 0.39581,0 0.71966,-0.32385 0.71966,-0.719666 V 13.566797 h 11.15483 c 2.77071,0 5.00168,2.230964 5.00168,5.001678 v 1.763182 c 0,2.734731 -2.23097,4.965695 -5.00168,4.965695 h -10.11131 c -0.39582,0 -0.75565,0.359833 -0.75565,0.75565 0,0.395816 0.35983,0.719666 0.75565,0.719666 z m 37.43478,-8.204193 c 0,-1.727198 -0.68368,-3.38243 -1.90712,-4.569879 -1.18745,-1.223432 -2.84268,-1.907114 -4.56988,-1.907114 h -6.15314 c -1.7272,0 -3.34645,0.683682 -4.56988,1.907114 -1.22343,1.187449 -1.87113,2.842681 -1.87113,4.569879 v 14.969053 c 0,1.727198 0.6477,3.346447 1.87113,4.569879 1.22343,1.223432 2.84268,1.871132 4.56988,1.871132 h 6.15314 c 1.7272,0 3.38243,-0.6477 4.56988,-1.871132 1.22344,-1.223432 1.90712,-2.842681 1.90712,-4.569879 z m -1.47532,0 v 14.969053 c 0,1.331382 -0.50376,2.590797 -1.43933,3.526363 -0.93556,0.935566 -2.23096,1.475316 -3.56235,1.475316 h -6.15314 c -1.33138,0 -2.5908,-0.53975 -3.52636,-1.475316 -0.93557,-0.935566 -1.47532,-2.194981 -1.47532,-3.526363 V 18.568475 c 0,-1.331382 0.53975,-2.590797 1.47532,-3.526363 0.93556,-0.935566 2.19498,-1.475315 3.52636,-1.475315 h 6.15314 c 1.33139,0 2.62679,0.539749 3.56235,1.475315 0.93557,0.935566 1.43933,2.194981 1.43933,3.526363 z m 9.90756,-5.721344 v 26.411742 c 0,0.395816 0.32385,0.719666 0.71966,0.719666 0.39582,0 0.71967,-0.32385 0.71967,-0.719666 V 12.847131 c 0,-0.4318 -0.32385,-0.755649 -0.71967,-0.755649 -0.39581,0 -0.71966,0.323849 -0.71966,0.755649 z m 10.59125,-0.755649 c -0.39582,0 -0.71967,0.323849 -0.71967,0.755649 v 26.411742 c 0,0.395816 0.32385,0.719666 0.71967,0.719666 h 11.87448 c 1.7272,0 3.38243,-0.6477 4.56988,-1.871132 1.22344,-1.223432 1.90712,-2.842681 1.90712,-4.569879 V 18.568475 c 0,-1.727198 -0.68368,-3.38243 -1.90712,-4.569879 -1.18745,-1.223432 -2.84268,-1.907114 -4.56988,-1.907114 z m 0.71966,1.475315 h 11.15482 c 1.33139,0 2.62678,0.539749 3.56235,1.475315 0.93557,0.935566 1.43933,2.194981 1.43933,3.526363 v 14.969053 c 0,1.331382 -0.50376,2.590797 -1.43933,3.526363 -0.93557,0.935566 -2.23096,1.475316 -3.56235,1.475316 h -11.15482 z"
       id="text1"
       style="font-size:35.9833px;font-family:Drexs;-inkscape-font-specification:Drexs;letter-spacing:4.4741px;fill:#ffffff;stroke-width:0.264583"
       aria-label="EARTH VS ASTEROID" />
  </g>
</svg>
