<?xml version="1.0" encoding="UTF-8" standalone="no"?>
<!-- Created with Inkscape (http://www.inkscape.org/) -->

<svg
   width="500mm"
   height="500mm"
   viewBox="0 0 500 500"
   version="1.1"
   id="svg1"
   inkscape:version="1.4.2 (f4327f4, 2025-05-13)"
   sodipodi:docname="impact_earth_hover.svg"
   xmlns:inkscape="http://www.inkscape.org/namespaces/inkscape"
   xmlns:sodipodi="http://sodipodi.sourceforge.net/DTD/sodipodi-0.dtd"
   xmlns="http://www.w3.org/2000/svg"
   xmlns:svg="http://www.w3.org/2000/svg">
  <sodipodi:namedview
     id="namedview1"
     pagecolor="#ffffff"
     bordercolor="#000000"
     borderopacity="0.25"
     inkscape:showpageshadow="2"
     inkscape:pageopacity="0.0"
     inkscape:pagecheckerboard="0"
     inkscape:deskcolor="#d1d1d1"
     inkscape:document-units="mm"
     inkscape:zoom="0.53606888"
     inkscape:cx="953.23571"
     inkscape:cy="896.34004"
     inkscape:window-width="1920"
     inkscape:window-height="1111"
     inkscape:window-x="-9"
     inkscape:window-y="-9"
     inkscape:window-maximized="1"
     inkscape:current-layer="layer1" />
  <defs
     id="defs1">
    <inkscape:path-effect
       effect="spiro"
       id="path-effect3"
       is_visible="true"
       lpeversion="1" />
    <inkscape:path-effect
       effect="spiro"
       id="path-effect2"
       is_visible="true"
       lpeversion="1" />
  </defs>
  <g
     inkscape:label="Layer 1"
     inkscape:groupmode="layer"
     id="layer1">
    <path
       id="path6"
       style="fill:#ff7f50;fill-opacity:1;stroke:#ffffff;stroke-width:0;stroke-linecap:square;stroke-linejoin:miter;stroke-dasharray:none;stroke-opacity:1"
       d="M 135.46253 130.06338 A 165.64999 165.5 0 0 0 79.718132 253.8889 A 165.64999 165.5 0 0 0 80.673629 271.6351 L 80.673629 271.63562 L 92.834127 280.93479 L 109.58659 312.34476 L 104.43704 340.86343 A 165.64999 165.5 0 0 0 178.60202 405.35045 L 180.08462 390.52087 L 208.70251 374.46707 L 217.07874 333.98271 L 178.68883 307.45875 L 140.99656 306.06246 L 124.94224 269.76648 L 163.33267 263.48469 L 195.44078 221.60456 L 258.95887 213.22833 L 264.54303 164.36826 L 233.83069 161.57618 L 210.0988 144.12609 L 165.4266 153.8981 L 135.46253 130.06338 z M 373.46248 148.95163 L 334.3429 160.1804 L 314.79887 204.15446 L 399.95543 206.94654 L 404.75617 208.81361 A 165.64999 165.5 0 0 0 373.46248 148.95163 z M 312.70494 243.24252 L 293.85907 250.22245 L 288.27491 278.14271 L 271.52296 299.08252 L 286.87913 343.05658 L 347.60514 352.82911 L 340.88772 389.10286 A 165.64999 165.5 0 0 0 411.01832 253.8889 A 165.64999 165.5 0 0 0 410.85916 246.63094 L 327.36296 245.33645 L 312.70494 243.24252 z " />
    <path
       style="fill:#ffffff;stroke-width:0.264583"
       d="m 372.03525,142.39248 -46.06816,17.45006"
       id="path2"
       inkscape:path-effect="#path-effect2"
       inkscape:original-d="m 372.03525,142.39248 -46.06816,17.45006" />
    <path
       style="fill:#ffffff;stroke-width:0.264583"
       d="m 319.68508,189.85664 6.98,-9.07403"
       id="path3"
       inkscape:path-effect="#path-effect3"
       inkscape:original-d="m 319.68508,189.85664 6.98,-9.07403" />
    <path
       style="fill:#ffffff;stroke-width:0.264583"
       d="m 315.49705,214.98472 50.95417,-83.06228"
       id="path4" />
    <path
       style="fill:#ffffff;fill-opacity:1;stroke:none;stroke-width:3.93456;stroke-linecap:square;stroke-linejoin:miter;stroke-dasharray:none;stroke-opacity:1;paint-order:normal"
       d="m 287.28694,257.60253 -1.10969,27.74217 14.98078,27.18733 59.92307,-3.88392 41.05843,16.09048 48.82622,-14.98079 0.55483,-45.49716 -38.28419,-31.07122 -39.94873,7.21296 -45.49715,-19.41952 -24.96794,11.65172 z"
       id="path7-1" />
    <path
       id="path7"
       style="fill:#ff7f50;fill-opacity:1;stroke:#ffffff;stroke-width:0;stroke-linecap:square;stroke-linejoin:miter;stroke-dasharray:none;stroke-opacity:1"
       d="M 328.39908 224.23437 L 306.24384 234.71591 L 292.5408 256.99827 L 291.68349 281.68151 L 305.13641 305.79529 L 353.6425 302.39498 A 10.118025 10 0 0 1 351.41628 296.13748 A 10.118025 10 0 0 1 361.53452 286.13757 A 10.118025 10 0 0 1 371.65225 296.13748 A 10.118025 10 0 0 1 366.14406 305.03926 L 395.02085 316.18122 L 438.38358 302.62701 L 438.66418 262.15299 L 404.46368 234.69265 L 368.96146 241.29587 L 328.39908 224.23437 z M 385.96559 253.19747 A 5.9227462 5.9227457 0 0 1 391.88822 259.1201 A 5.9227462 5.9227457 0 0 1 385.96559 265.04274 A 5.9227462 5.9227457 0 0 1 380.04295 259.1201 A 5.9227462 5.9227457 0 0 1 385.96559 253.19747 z M 325.99767 255.1715 A 12.092274 11.351931 0 0 1 338.08996 266.52378 A 12.092274 11.351931 0 0 1 325.99767 277.87555 A 12.092274 11.351931 0 0 1 313.90539 266.52378 A 12.092274 11.351931 0 0 1 325.99767 255.1715 z M 400.27893 280.34309 A 8.3905573 8.1437759 0 0 1 408.66963 288.4873 A 8.3905573 8.1437759 0 0 1 400.27893 296.63099 A 8.3905573 8.1437759 0 0 1 391.88822 288.4873 A 8.3905573 8.1437759 0 0 1 400.27893 280.34309 z " />
    <path
       style="fill:#ff7f50;fill-opacity:1;stroke:none;stroke-width:3.49999;stroke-linecap:square;stroke-linejoin:miter;stroke-dasharray:none;stroke-opacity:1;paint-order:normal"
       d="m 406.69524,320.81543 60.70817,56.26608 -50.34336,-60.21459 z"
       id="path10" />
    <path
       style="fill:#ff7f50;fill-opacity:1;stroke:none;stroke-width:3.49999;stroke-linecap:square;stroke-linejoin:miter;stroke-dasharray:none;stroke-opacity:1;paint-order:normal"
       d="m 446.18023,292.68237 -0.49358,8.39057 48.86266,12.33905 z"
       id="path11"
       sodipodi:nodetypes="cccc" />
    <path
       style="fill:#ff7f50;fill-opacity:1;stroke:none;stroke-width:3.49999;stroke-linecap:square;stroke-linejoin:miter;stroke-dasharray:none;stroke-opacity:1;paint-order:normal"
       d="m 447.66089,263.56221 v 8.88411 L 496.03,266.03004 Z"
       id="path12"
       sodipodi:nodetypes="cccc" />
    <path
       style="fill:#ff7f50;fill-opacity:1;stroke:none;stroke-width:3.49999;stroke-linecap:square;stroke-linejoin:miter;stroke-dasharray:none;stroke-opacity:1;paint-order:normal"
       d="m 421.00855,237.89698 75.51502,-17.27468 -62.18883,26.65236 z"
       id="path13"
       sodipodi:nodetypes="cccc" />
    <text
       xml:space="preserve"
       style="font-size:35.9833px;font-family:Drexs;-inkscape-font-specification:Drexs;text-align:start;letter-spacing:7.13581px;writing-mode:lr-tb;direction:ltr;text-anchor:start;fill:#ff7f50;fill-opacity:1;stroke:none;stroke-width:3.49999;stroke-linecap:square;stroke-linejoin:miter;stroke-dasharray:none;stroke-opacity:1;paint-order:normal"
       x="85.879822"
       y="469.37766"
       id="text13"><tspan
         sodipodi:role="line"
         id="tspan13"
         style="stroke-width:3.5"
         x="85.879822"
         y="469.37766">IMPACT EARTH</tspan></text>
  </g>
</svg>
