<?xml version="1.0" encoding="UTF-8" standalone="no"?>
<!-- Created with Inkscape (http://www.inkscape.org/) -->

<svg
   width="500mm"
   height="500mm"
   viewBox="0 0 500 500"
   version="1.1"
   id="svg1"
   inkscape:version="1.4.2 (f4327f4, 2025-05-13)"
   sodipodi:docname="impact_earth_hover.svg"
   xmlns:inkscape="http://www.inkscape.org/namespaces/inkscape"
   xmlns:sodipodi="http://sodipodi.sourceforge.net/DTD/sodipodi-0.dtd"
   xmlns="http://www.w3.org/2000/svg"
   xmlns:svg="http://www.w3.org/2000/svg">
  <sodipodi:namedview
     id="namedview1"
     pagecolor="#ffffff"
     bordercolor="#000000"
     borderopacity="0.25"
     inkscape:showpageshadow="2"
     inkscape:pageopacity="0.0"
     inkscape:pagecheckerboard="0"
     inkscape:deskcolor="#d1d1d1"
     inkscape:document-units="mm"
     inkscape:zoom="0.53606888"
     inkscape:cx="952.303"
     inkscape:cy="1245.1758"
     inkscape:window-width="1920"
     inkscape:window-height="1111"
     inkscape:window-x="-9"
     inkscape:window-y="-9"
     inkscape:window-maximized="1"
     inkscape:current-layer="layer1" />
  <defs
     id="defs1">
    <inkscape:path-effect
       effect="spiro"
       id="path-effect3"
       is_visible="true"
       lpeversion="1" />
    <inkscape:path-effect
       effect="spiro"
       id="path-effect2"
       is_visible="true"
       lpeversion="1" />
  </defs>
  <g
     inkscape:label="Layer 1"
     inkscape:groupmode="layer"
     id="layer1">
    <path
       id="path6"
       style="fill:#ff7f50;fill-opacity:1;stroke:#ffffff;stroke-width:0;stroke-linecap:square;stroke-linejoin:miter;stroke-dasharray:none;stroke-opacity:1"
       d="M 135.46253 130.06338 A 165.64999 165.5 0 0 0 79.718132 253.8889 A 165.64999 165.5 0 0 0 80.673629 271.6351 L 80.673629 271.63562 L 92.834127 280.93479 L 109.58659 312.34476 L 104.43704 340.86343 A 165.64999 165.5 0 0 0 178.60202 405.35045 L 180.08462 390.52087 L 208.70251 374.46707 L 217.07874 333.98271 L 178.68883 307.45875 L 140.99656 306.06246 L 124.94224 269.76648 L 163.33267 263.48469 L 195.44078 221.60456 L 258.95887 213.22833 L 264.54303 164.36826 L 233.83069 161.57618 L 210.0988 144.12609 L 165.4266 153.8981 L 135.46253 130.06338 z M 373.46248 148.95163 L 334.3429 160.1804 L 314.79887 204.15446 L 399.95543 206.94654 L 404.75617 208.81361 A 165.64999 165.5 0 0 0 373.46248 148.95163 z M 286.37012 280.52345 L 271.52296 299.08252 L 286.87913 343.05658 L 347.60514 352.82911 L 340.88772 389.10286 A 165.64999 165.5 0 0 0 396.16031 322.39583 L 361.08132 308.64834 L 301.15785 312.53183 L 286.17736 285.34486 L 286.37012 280.52345 z " />
    <path
       style="fill:#ffffff;stroke-width:0.264583"
       d="m 372.03525,142.39248 -46.06816,17.45006"
       id="path2"
       inkscape:path-effect="#path-effect2"
       inkscape:original-d="m 372.03525,142.39248 -46.06816,17.45006" />
    <path
       style="fill:#ffffff;stroke-width:0.264583"
       d="m 319.68508,189.85664 6.98,-9.07403"
       id="path3"
       inkscape:path-effect="#path-effect3"
       inkscape:original-d="m 319.68508,189.85664 6.98,-9.07403" />
    <path
       style="fill:#ffffff;stroke-width:0.264583"
       d="m 315.49705,214.98472 50.95417,-83.06228"
       id="path4" />
    <path
       id="path7"
       style="fill:#ff7f50;fill-opacity:1;stroke:#ffffff;stroke-width:0;stroke-linecap:square;stroke-linejoin:miter;stroke-dasharray:none;stroke-opacity:1"
       d="M 328.39908 224.23437 L 306.24384 234.71591 L 292.5408 256.99827 L 291.68349 281.68151 L 305.13641 305.79529 L 353.6425 302.39498 A 10.118025 10 0 0 1 351.41628 296.13748 A 10.118025 10 0 0 1 361.53452 286.13757 A 10.118025 10 0 0 1 371.65225 296.13748 A 10.118025 10 0 0 1 366.14406 305.03926 L 395.02085 316.18122 L 438.38358 302.62701 L 438.66418 262.15299 L 404.46368 234.69265 L 368.96146 241.29587 L 328.39908 224.23437 z M 385.96559 253.19747 A 5.9227462 5.9227457 0 0 1 391.88822 259.1201 A 5.9227462 5.9227457 0 0 1 385.96559 265.04274 A 5.9227462 5.9227457 0 0 1 380.04295 259.1201 A 5.9227462 5.9227457 0 0 1 385.96559 253.19747 z M 325.99767 255.1715 A 12.092274 11.351931 0 0 1 338.08996 266.52378 A 12.092274 11.351931 0 0 1 325.99767 277.87555 A 12.092274 11.351931 0 0 1 313.90539 266.52378 A 12.092274 11.351931 0 0 1 325.99767 255.1715 z M 400.27893 280.34309 A 8.3905573 8.1437759 0 0 1 408.66963 288.4873 A 8.3905573 8.1437759 0 0 1 400.27893 296.63099 A 8.3905573 8.1437759 0 0 1 391.88822 288.4873 A 8.3905573 8.1437759 0 0 1 400.27893 280.34309 z " />
    <path
       style="fill:#ff7f50;fill-opacity:1;stroke:none;stroke-width:3.49999;stroke-linecap:square;stroke-linejoin:miter;stroke-dasharray:none;stroke-opacity:1;paint-order:normal"
       d="m 406.69524,320.81543 60.70817,56.26608 -50.34336,-60.21459 z"
       id="path10" />
    <path
       style="fill:#ff7f50;fill-opacity:1;stroke:none;stroke-width:3.49999;stroke-linecap:square;stroke-linejoin:miter;stroke-dasharray:none;stroke-opacity:1;paint-order:normal"
       d="m 446.18023,292.68237 -0.49358,8.39057 48.86266,12.33905 z"
       id="path11"
       sodipodi:nodetypes="cccc" />
    <path
       style="fill:#ff7f50;fill-opacity:1;stroke:none;stroke-width:3.49999;stroke-linecap:square;stroke-linejoin:miter;stroke-dasharray:none;stroke-opacity:1;paint-order:normal"
       d="m 447.66089,263.56221 v 8.88411 L 496.03,266.03004 Z"
       id="path12"
       sodipodi:nodetypes="cccc" />
    <path
       style="fill:#ff7f50;fill-opacity:1;stroke:none;stroke-width:3.49999;stroke-linecap:square;stroke-linejoin:miter;stroke-dasharray:none;stroke-opacity:1;paint-order:normal"
       d="m 421.00855,237.89698 75.51502,-17.27468 -62.18883,26.65236 z"
       id="path13"
       sodipodi:nodetypes="cccc" />
    <path
       style="font-size:35.9833px;font-family:Drexs;-inkscape-font-specification:Drexs;letter-spacing:7.13581px;fill:#ff7f50;stroke-width:3.5;stroke-linecap:square"
       d="m 87.858903,442.24625 v 26.41174 c 0,0.39582 0.32385,0.71967 0.719666,0.71967 0.395817,0 0.719666,-0.32385 0.719666,-0.71967 v -26.41174 c 0,-0.4318 -0.323849,-0.75565 -0.719666,-0.75565 -0.395816,0 -0.719666,0.32385 -0.719666,0.75565 z m 13.972627,26.41174 v -24.00086 l 16.30043,24.39668 c 0.10795,0.2159 0.35983,0.35983 0.61172,0.35983 0.2159,0 0.46778,-0.14393 0.61171,-0.35983 0,0 12.12637,-18.20755 16.26445,-24.39668 v 24.00086 c 0,0.39582 0.32385,0.75565 0.71967,0.75565 0.4318,0 0.75565,-0.35983 0.75565,-0.75565 v -26.41174 c 0,-0.32385 -0.2159,-0.61172 -0.53975,-0.71967 -0.28787,-0.10795 -0.6477,0.036 -0.82762,0.28787 0,0 -13.88955,20.87031 -16.98411,25.51216 l -17.0201,-25.51216 c -0.17992,-0.25189 -0.50377,-0.39582 -0.82762,-0.28787 -0.32385,0.10795 -0.50377,0.39582 -0.50377,0.71967 v 26.41174 c 0,0.39582 0.32385,0.75565 0.71967,0.75565 0.39582,0 0.71967,-0.35983 0.71967,-0.75565 z m 48.84042,-12.48621 h 10.11131 c 3.59833,0 6.47699,-2.87866 6.47699,-6.44101 v -1.76318 c 0,-3.56234 -2.87866,-6.47699 -6.47699,-6.47699 h -11.87449 c -0.39582,0 -0.71967,0.32385 -0.71967,0.75565 v 26.41174 c 0,0.39582 0.32385,0.71967 0.71967,0.71967 0.39582,0 0.71967,-0.32385 0.71967,-0.71967 v -25.69208 h 11.15482 c 2.77071,0 5.00168,2.23097 5.00168,5.00168 v 1.76318 c 0,2.73473 -2.23097,4.9657 -5.00168,4.9657 h -10.11131 c -0.39582,0 -0.75565,0.35983 -0.75565,0.75565 0,0.39581 0.35983,0.71966 0.75565,0.71966 z m 40.60026,-1.47531 h -6.0452 c -0.39581,0 -0.71966,0.35983 -0.71966,0.75565 0,0.39581 0.32385,0.71966 0.71966,0.71966 h 6.51298 l 4.24603,12.73809 c 0.14393,0.35984 0.53975,0.57573 0.93557,0.4318 0.39581,-0.10795 0.61171,-0.53975 0.46778,-0.89958 l -4.38996,-13.20587 c 0,0 -0.036,-0.036 -0.036,-0.036 l -4.38996,-13.20588 c -0.10795,-0.28786 -0.35983,-0.50376 -0.68368,-0.50376 -0.32385,0 -0.61172,0.2159 -0.71967,0.50376 l -8.77992,26.44773 c -0.14394,0.35983 0.072,0.79163 0.4318,0.89958 0.39581,0.14393 0.82761,-0.072 0.93556,-0.4318 0,0 6.0452,-18.0996 8.13223,-24.36069 z m 36.31824,-3.6703 v -3.05858 c 0,-3.56234 -2.87866,-6.47699 -6.47699,-6.47699 h -6.15315 c -1.72719,0 -3.34644,0.68368 -4.56987,1.90711 -1.22344,1.18745 -1.87114,2.84268 -1.87114,4.56988 v 14.96905 c 0,1.7272 0.6477,3.34645 1.87114,4.56988 1.22343,1.22344 2.84268,1.87114 4.56987,1.87114 h 6.15315 c 3.59833,0 6.47699,-2.87867 6.47699,-6.44102 v -3.09456 c 0,-0.39582 -0.32385,-0.71967 -0.71966,-0.71967 -0.4318,0 -0.75565,0.32385 -0.75565,0.71967 v 3.09456 c 0,2.77072 -2.23097,5.00168 -5.00168,5.00168 h -6.15315 c -1.33138,0 -2.59079,-0.53975 -3.52636,-1.47531 -0.93556,-0.93557 -1.47531,-2.19498 -1.47531,-3.52637 v -14.96905 c 0,-1.33138 0.53975,-2.5908 1.47531,-3.52636 0.93557,-0.93557 2.19498,-1.47532 3.52636,-1.47532 h 6.15315 c 2.77071,0 5.00168,2.23097 5.00168,5.00168 v 3.05858 c 0,0.4318 0.32385,0.75565 0.75565,0.75565 0.39581,0 0.71966,-0.32385 0.71966,-0.75565 z m 29.44544,-9.53557 h -17.63182 c -0.39582,0 -0.71967,0.32385 -0.71967,0.75565 0,0.39581 0.32385,0.71966 0.71967,0.71966 h 8.06026 v 25.69208 c 0,0.39582 0.32385,0.71967 0.75565,0.71967 0.39581,0 0.71966,-0.32385 0.71966,-0.71967 v -25.69208 h 8.09625 c 0.39581,0 0.71966,-0.32385 0.71966,-0.71966 0,-0.4318 -0.32385,-0.75565 -0.71966,-0.75565 z m 46.29672,0 h -17.63182 c -0.39581,0 -0.71966,0.32385 -0.71966,0.75565 v 26.41174 c 0,0.39582 0.32385,0.71967 0.71966,0.71967 h 17.63182 c 0.39582,0 0.71966,-0.32385 0.71966,-0.71967 0,-0.39582 -0.32384,-0.71967 -0.71966,-0.71967 h -16.91215 v -24.97241 h 16.91215 c 0.39582,0 0.71966,-0.32385 0.71966,-0.71966 0,-0.4318 -0.32384,-0.75565 -0.71966,-0.75565 z m -15.86864,14.68118 h 15.86864 c 0.39582,0 0.71966,-0.32385 0.71966,-0.71966 0,-0.39582 -0.32384,-0.75565 -0.71966,-0.75565 h -15.86864 c -0.39581,0 -0.75565,0.35983 -0.75565,0.75565 0,0.39581 0.35984,0.71966 0.75565,0.71966 z m 40.60026,-1.47531 h -6.04519 c -0.39582,0 -0.71967,0.35983 -0.71967,0.75565 0,0.39581 0.32385,0.71966 0.71967,0.71966 h 6.51297 l 4.24603,12.73809 c 0.14394,0.35984 0.53975,0.57573 0.93557,0.4318 0.39581,-0.10795 0.61171,-0.53975 0.46778,-0.89958 l -4.38996,-13.20587 c 0,0 -0.036,-0.036 -0.036,-0.036 l -4.38997,-13.20588 c -0.10795,-0.28786 -0.35983,-0.50376 -0.68368,-0.50376 -0.32385,0 -0.61172,0.2159 -0.71967,0.50376 l -8.77992,26.44773 c -0.14393,0.35983 0.072,0.79163 0.4318,0.89958 0.39582,0.14393 0.82762,-0.072 0.93556,-0.4318 0,0 6.0452,-18.0996 8.13223,-24.36069 z m 26.38685,1.47531 8.60001,12.88203 c 0.2159,0.35983 0.68369,0.43179 1.00754,0.2159 0.32384,-0.2159 0.43179,-0.68369 0.2159,-1.00754 l -8.06026,-12.09039 h 1.69121 c 3.59833,0 6.47699,-2.87866 6.47699,-6.44101 v -1.76318 c 0,-3.56234 -2.87866,-6.47699 -6.47699,-6.47699 h -11.87449 c -0.39581,0 -0.71966,0.32385 -0.71966,0.75565 v 26.41174 c 0,0.39582 0.32385,0.71967 0.71966,0.71967 0.39582,0 0.71967,-0.32385 0.71967,-0.71967 v -25.69208 h 11.15482 c 2.77072,0 5.00168,2.23097 5.00168,5.00168 v 1.76318 c 0,2.73473 -2.23096,4.9657 -5.00168,4.9657 h -10.11131 c -0.39581,0 -0.75565,0.35983 -0.75565,0.75565 0,0.39581 0.35984,0.71966 0.75565,0.71966 z m 39.37683,-14.68118 h -17.63182 c -0.39581,0 -0.71966,0.32385 -0.71966,0.75565 0,0.39581 0.32385,0.71966 0.71966,0.71966 h 8.06026 v 25.69208 c 0,0.39582 0.32385,0.71967 0.75565,0.71967 0.39582,0 0.71967,-0.32385 0.71967,-0.71967 v -25.69208 h 8.09624 c 0.39582,0 0.71967,-0.32385 0.71967,-0.71966 0,-0.4318 -0.32385,-0.75565 -0.71967,-0.75565 z m 12.53328,0 c -0.39581,0 -0.71966,0.32385 -0.71966,0.75565 v 26.41174 c 0,0.39582 0.32385,0.71967 0.71966,0.71967 0.39582,0 0.71967,-0.32385 0.71967,-0.71967 v -26.41174 c 0,-0.4318 -0.32385,-0.75565 -0.71967,-0.75565 z m 17.63182,0 c -0.4318,0 -0.75565,0.32385 -0.75565,0.75565 v 12.45022 h -15.11299 c -0.39581,0 -0.75565,0.35983 -0.75565,0.75565 0,0.39581 0.35984,0.71966 0.75565,0.71966 h 15.11299 v 12.48621 c 0,0.39582 0.32385,0.71967 0.75565,0.71967 0.39582,0 0.71967,-0.32385 0.71967,-0.71967 v -13.20587 -13.20587 c 0,-0.4318 -0.32385,-0.75565 -0.71967,-0.75565 z"
       id="text13"
       aria-label="IMPACT EARTH" />
  </g>
</svg>
