<?xml version="1.0" encoding="UTF-8" standalone="no"?>
<!-- Created with Inkscape (http://www.inkscape.org/) -->

<svg
   width="540"
   height="135"
   viewBox="0 0 540 135"
   version="1.1"
   id="svg1"
   inkscape:version="1.4.2 (f4327f4, 2025-05-13)"
   sodipodi:docname="stopsim.svg"
   xmlns:inkscape="http://www.inkscape.org/namespaces/inkscape"
   xmlns:sodipodi="http://sodipodi.sourceforge.net/DTD/sodipodi-0.dtd"
   xmlns="http://www.w3.org/2000/svg"
   xmlns:svg="http://www.w3.org/2000/svg">
  <sodipodi:namedview
     id="namedview1"
     pagecolor="#ffffff"
     bordercolor="#000000"
     borderopacity="0.25"
     inkscape:showpageshadow="2"
     inkscape:pageopacity="0.0"
     inkscape:pagecheckerboard="0"
     inkscape:deskcolor="#d1d1d1"
     inkscape:document-units="px"
     inkscape:zoom="1.6621094"
     inkscape:cx="358.88132"
     inkscape:cy="208.47004"
     inkscape:window-width="1920"
     inkscape:window-height="1111"
     inkscape:window-x="-9"
     inkscape:window-y="-9"
     inkscape:window-maximized="1"
     inkscape:current-layer="layer1" />
  <defs
     id="defs1" />
  <g
     inkscape:label="Layer 1"
     inkscape:groupmode="layer"
     id="layer1">
    <rect
       style="fill:#ff6961;fill-opacity:1;stroke-width:13.2283;stroke-linecap:square"
       id="rect1"
       width="491.54404"
       height="101.07639"
       x="27.675676"
       y="17.447708"
       ry="50.538197" />
    <path
       style="font-size:48px;font-family:Drexs;-inkscape-font-specification:Drexs;letter-spacing:7.68px;fill:#ffffff;stroke-width:13.2283;stroke-linecap:square"
       d="m 157.67699,53.97716 h -20.592 c -2.16,0 -3.888,1.776 -3.888,3.936 0,1.008 0.384,2.016 1.104,2.736 0.768,0.768 1.728,1.152 2.784,1.152 h 12.816 c 3.648,0 6.624,2.928 6.672,6.576 0,0.816 0,1.584 0,2.352 0.048,1.776 -0.672,3.504 -1.92,4.8 -1.248,1.248 -2.928,1.968 -4.704,1.968 h -15.792 c -0.528,0 -0.96,0.432 -0.96,0.96 0,0.528 0.432,0.96 0.96,0.96 h 15.792 c 2.304,0 4.512,-0.912 6.096,-2.544 1.632,-1.632 2.544,-3.84 2.496,-6.144 0,-0.768 0,-1.584 0,-2.352 -0.096,-4.704 -3.936,-8.544 -8.64,-8.544 h -12.816 c -0.528,0 -1.008,-0.192 -1.392,-0.576 -0.336,-0.336 -0.576,-0.864 -0.576,-1.344 0,-1.104 0.912,-1.968 1.968,-1.968 h 20.592 c 0.528,0 0.96,-0.432 0.96,-1.008 0,-0.528 -0.432,-0.96 -0.96,-0.96 z m 23.27997,5.856 h -8.4 c -0.528,0 -0.96,0.48 -0.96,1.008 0,0.528 0.432,0.96 0.96,0.96 h 8.4 v 9.024 c 0,2.304 0.912,4.464 2.544,6.096 1.632,1.632 3.792,2.496 6.096,2.496 h 6.48 c 0.528,0 0.96,-0.432 0.96,-0.96 0,-0.528 -0.432,-0.96 -0.96,-0.96 h -6.48 c -1.776,0 -3.456,-0.72 -4.704,-1.968 -1.248,-1.248 -1.968,-2.928 -1.968,-4.704 v -9.024 h 10.8 c 0.528,0 0.96,-0.432 0.96,-0.96 0,-0.528 -0.432,-1.008 -0.96,-1.008 h -10.8 v -10.752 c 0,-0.528 -0.432,-0.96 -0.96,-0.96 -0.528,0 -1.008,0.432 -1.008,0.96 z m 37.63197,-5.856 c -4.752,0 -8.592,3.84 -8.592,8.64 v 8.208 c 0,4.752 3.84,8.592 8.592,8.592 h 8.208 c 4.8,0 8.64,-3.84 8.64,-8.592 v -8.208 c 0,-4.8 -3.84,-8.64 -8.64,-8.64 z m 0,1.968 h 8.208 c 3.696,0 6.672,2.976 6.672,6.672 v 8.208 c 0,3.696 -2.976,6.672 -6.672,6.672 h -8.208 c -3.696,0 -6.672,-2.976 -6.672,-6.672 v -8.208 c 0,-3.696 2.976,-6.672 6.672,-6.672 z m 31.72797,34.08 v -27.6 c 0,-1.776 0.72,-3.504 1.968,-4.752 1.248,-1.248 2.928,-1.92 4.704,-1.92 h 8.208 c 3.696,0 6.672,2.976 6.672,6.672 v 8.208 c 0,3.696 -2.976,6.672 -6.672,6.672 h -13.488 c -0.528,0 -1.008,0.432 -1.008,0.96 0,0.528 0.48,1.008 1.008,1.008 h 13.488 c 4.8,0 8.64,-3.888 8.64,-8.64 v -8.208 c 0,-4.8 -3.84,-8.64 -8.64,-8.64 h -8.208 c -2.304,0 -4.464,0.912 -6.096,2.544 -1.632,1.584 -2.496,3.792 -2.496,6.096 v 27.6 c 0,0.528 0.432,0.96 0.96,0.96 0.528,0 0.96,-0.432 0.96,-0.96 z m 80.63997,-36.048 h -20.592 c -2.16,0 -3.888,1.776 -3.888,3.936 0,1.008 0.384,2.016 1.104,2.736 0.768,0.768 1.728,1.152 2.784,1.152 h 12.816 c 3.648,0 6.624,2.928 6.672,6.576 0,0.816 0,1.584 0,2.352 0.048,1.776 -0.672,3.504 -1.92,4.8 -1.248,1.248 -2.928,1.968 -4.704,1.968 h -15.792 c -0.528,0 -0.96,0.432 -0.96,0.96 0,0.528 0.432,0.96 0.96,0.96 h 15.792 c 2.304,0 4.512,-0.912 6.096,-2.544 1.632,-1.632 2.544,-3.84 2.496,-6.144 0,-0.768 0,-1.584 0,-2.352 -0.096,-4.704 -3.936,-8.544 -8.64,-8.544 h -12.816 c -0.528,0 -1.008,-0.192 -1.392,-0.576 -0.336,-0.336 -0.576,-0.864 -0.576,-1.344 0,-1.104 0.912,-1.968 1.968,-1.968 h 20.592 c 0.528,0 0.96,-0.432 0.96,-1.008 0,-0.528 -0.432,-0.96 -0.96,-0.96 z m 16.17598,24.48 v -28.224 c 0,-0.528 -0.432,-0.96 -1.008,-0.96 -0.528,0 -0.96,0.432 -0.96,0.96 v 28.224 c 0,0.528 0.432,0.96 0.96,0.96 0.576,0 1.008,-0.432 1.008,-0.96 z m -1.008,-36.24 c -0.672,0 -1.248,0.576 -1.248,1.296 0,0.72 0.576,1.296 1.248,1.296 0.72,0 1.296,-0.576 1.296,-1.296 0,-0.72 -0.576,-1.296 -1.296,-1.296 z m 37.72799,36.288 v 0 0 c 0.048,0.336 0.192,0.624 0.48,0.768 v 0.048 0 h 0.048 v 0 h 0.048 v 0.048 h 0.048 v 0 h 0.048 v 0 l 0.048,0.048 v 0 0 h 0.048 v 0 h 0.048 v 0 h 0.048 0.048 v 0 h 0.048 v 0 h 0.048 v 0 h 0.048 v 0 h 0.048 v 0 h 0.048 v 0 h 0.048 v 0 h 0.048 v 0 h 0.048 v -0.048 h 0.048 v 0 h 0.048 v 0 -0.048 h 0.048 v 0 c 0.288,-0.144 0.528,-0.48 0.528,-0.864 v -15.84 c 0,-3.696 2.976,-6.672 6.672,-6.672 h 14.88 v 22.512 c 0,0.528 0.432,0.96 0.96,0.96 0.576,0 1.008,-0.432 1.008,-0.96 v -23.52 c 0,-0.528 -0.432,-0.96 -1.008,-0.96 h -15.84 c -2.688,0 -5.088,1.248 -6.672,3.168 v -2.208 c 0,-0.528 -0.432,-0.96 -0.96,-0.96 h -15.888 c -4.752,0 -8.592,3.84 -8.592,8.64 v 15.84 c 0,0.528 0.432,0.96 0.96,0.96 0.528,0 0.96,-0.432 0.96,-0.96 v -15.84 c 0,-3.696 2.976,-6.672 6.672,-6.672 h 14.88 v 22.512 c 0,0 0,0.048 0,0.048 z"
       id="text1"
       aria-label="stop sim" />
  </g>
</svg>
